<?xml version="1.0" standalone="no"?><!DOCTYPE svg PUBLIC "-//W3C//DTD SVG 1.1//EN" "http://www.w3.org/Graphics/SVG/1.1/DTD/svg11.dtd"><svg class="icon" width="200px" height="200.00px" viewBox="0 0 1024 1024" version="1.1" xmlns="http://www.w3.org/2000/svg"><path fill="#333333" d="M139.543661 797.22409C77.379856 776.319991 32.62556 717.577099 32.62556 648.382157c0-69.211315 44.754297-127.954207 106.918102-148.869562C90.156858 530.698874 57.356824 585.662697 57.356824 648.382157 57.356824 711.049428 90.156858 766.081813 139.543661 797.22409zM882.296139 797.225113c49.328475-31.143301 82.138742-86.192058 82.139765-148.841933 0-62.717414-32.810267-117.683283-82.139765-148.874679 62.104453 20.920472 106.868983 79.664388 106.868983 148.874679C989.163075 717.578122 944.399569 776.321014 882.296139 797.225113zM1012.722654 648.382157c0-93.586468-72.200392-170.335457-163.937746-177.590698-1.942235-85.410252-36.109406-165.413354-96.718809-226.021733-62.429865-62.428841-145.438417-96.80886-233.736439-96.80886-88.282672 0-171.288155 34.380018-233.722112 96.807836-60.490699 60.485583-94.652753 140.284023-96.725972 225.490637-96.829326 1.824555-174.74386 80.887238-174.74386 178.121793 0 98.312096 79.652108 178.018439 177.973414 178.121793 5.207605 10.438747 15.985066 17.613146 28.442796 17.613146 17.547655 0 31.772634-14.226003 31.772634-31.772634L251.326561 478.509235c0-147.226133 119.776967-267.002077 267.0031-267.002077s267.004123 119.775944 267.004123 267.002077l0 333.836251c0 17.545608 14.226003 31.772634 31.772634 31.772634 12.599969 0 23.487947-7.337105 28.626991-17.972327C938.914648 820.375369 1012.722654 743.003188 1012.722654 648.382157z" /></svg>