<?xml version="1.0" standalone="no"?><!DOCTYPE svg PUBLIC "-//W3C//DTD SVG 1.1//EN" "http://www.w3.org/Graphics/SVG/1.1/DTD/svg11.dtd"><svg class="icon" width="200px" height="200.00px" viewBox="0 0 1024 1024" version="1.1" xmlns="http://www.w3.org/2000/svg"><path fill="#333333" d="M523.17041 251.227812c-88.63469 0-160.744008 72.109318-160.744008 160.744008 0 88.63469 72.109318 160.744008 160.744008 160.744008 88.63469 0 160.745031-72.109318 160.745031-160.744008C683.915441 323.337129 611.8051 251.227812 523.17041 251.227812zM523.17041 506.200924c-51.958372 0-94.229105-42.271756-94.229105-94.229105s42.270732-94.229105 94.229105-94.229105c51.958372 0 94.230128 42.270732 94.230128 94.229105S575.128783 506.200924 523.17041 506.200924zM960.613344 804.563242 816.763099 653.970432c22.072715-27.633361 40.203654-58.036811 54.073546-90.827635 20.259416-47.898917 30.531364-98.760305 30.531364-151.172001s-10.271948-103.273085-30.531364-151.172001c-19.561521-46.2473-47.558156-87.775112-83.21219-123.43017-35.654035-35.654035-77.181847-63.650669-123.429147-83.211167C616.296391 33.899064 565.435003 23.627117 513.023306 23.627117S409.750221 33.899064 361.851305 54.158481c-46.2473 19.561521-87.775112 47.558156-123.43017 83.211167-35.654035 35.654035-63.650669 77.181847-83.211167 123.43017-20.259416 47.898917-30.531364 98.760305-30.531364 151.172001s10.272971 103.273085 30.531364 151.172001c14.419408 34.090423 33.43653 65.606207 56.71163 94.105285L71.203692 804.563242c-7.488555 7.839549-7.204076 20.265556 0.635473 27.754111l8.92016 8.521071c1.417279 2.081405 3.102664 4.045129 5.078669 5.834892l0.895393 0.810459c1.436722 1.300622 2.973728 2.433422 4.574179 3.430122l0.240477 0.229221c5.383614 5.143137 12.929474 6.618744 19.554358 4.500501 4.263094-0.35918 8.502651-1.533936 12.467963-3.574409 5.819542-2.994194 12.446473-5.218862 19.402909-5.218862 35.804461 0 64.934918 29.129434 64.934918 64.934918 0 7.493671-1.238201 14.758122-3.64911 21.60404-4.38589 12.455683-0.967024 27.220968 8.946766 35.861766 0.954745 1.565658 2.102894 3.044336 3.492544 4.370541l17.016559 15.231913c8.582469 8.198729 22.187325 8.91095 30.385031 0.327458l187.92609-193.615673c20.036335 3.1569 40.397059 4.751211 60.998259 4.751211 22.309098 0 44.336788-1.868557 65.975621-5.568832l188.719152 194.433294c8.198729 8.582469 21.802562 7.871271 30.385031-0.327458l17.016559-15.231913c1.388627-1.326205 2.537799-2.805906 3.492544-4.370541 9.91379-8.640798 13.332656-23.406083 8.946766-35.861766-2.409886-6.844895-3.64911-14.110369-3.64911-21.60404 0-35.805484 29.129434-64.934918 64.934918-64.934918 6.955412 0 13.583366 2.224668 19.402909 5.218862 3.965312 2.040473 8.205892 3.216251 12.467963 3.574409 6.624884 2.118244 14.171768 0.642636 19.554358-4.500501l0.240477-0.229221c1.600451-0.997724 3.13848-2.1295 4.574179-3.430122l0.895393-0.810459c1.976004-1.789763 3.66139-3.752464 5.078669-5.834892l8.92016-8.521071C967.81742 824.828798 968.101899 812.402791 960.613344 804.563242zM271.822872 885.724727c-9.604752-47.563272-44.966121-85.899392-90.848101-99.781564l77.262688-80.884169c30.94171 26.959002 65.688071 48.683792 103.614869 64.726164 5.380544 2.275833 10.79895 4.417613 16.252149 6.440689L271.822872 885.724727zM285.455357 639.539768c-60.785411-60.785411-94.26185-141.604088-94.26185-227.567949 0-85.963861 33.476439-166.782537 94.26185-227.567949 60.785411-60.785411 141.604088-94.26185 227.567949-94.26185s166.781514 33.476439 227.567949 94.26185c60.785411 60.785411 94.26185 141.604088 94.26185 227.567949 0 85.963861-33.476439 166.782537-94.26185 227.567949s-141.604088 94.26185-227.567949 94.26185S346.240769 700.32518 285.455357 639.539768zM759.993141 885.724727 652.16532 774.632559c4.028757-1.548262 8.040117-3.15997 12.028964-4.847401 39.21207-16.585747 75.014484-39.257096 106.738-67.497277l79.909981 83.655282C804.960285 799.825334 769.597893 838.161455 759.993141 885.724727z" /></svg>