<?xml version="1.0" standalone="no"?><!DOCTYPE svg PUBLIC "-//W3C//DTD SVG 1.1//EN" "http://www.w3.org/Graphics/SVG/1.1/DTD/svg11.dtd"><svg class="icon" width="200px" height="200.00px" viewBox="0 0 1024 1024" version="1.1" xmlns="http://www.w3.org/2000/svg"><path fill="#333333" d="M509.092 501.653c241.775 0 424.087-78.085 424.087-181.64 0-103.543-182.312-181.628-424.087-181.628S84.994 216.47 84.994 320.015c0 103.554 182.322 181.638 424.098 181.638z m0-317.432c222.909 0 378.252 71.562 378.252 135.793S732.002 455.818 509.092 455.818c-222.92 0-378.263-71.573-378.263-135.804s155.343-135.793 378.263-135.793zM509.084 694.062c241.115 0 422.937-77.599 422.937-180.483 0-27.17-13.128-52.454-36.241-75.131-0.149-0.154-0.266-0.32-0.419-0.469-0.17-0.167-0.285-0.346-0.456-0.51l-0.115 0.125c-3.717-3.407-8.576-5.608-14.017-5.608-11.543 0-20.899 9.356-20.899 20.899 0 6.11 2.722 11.481 6.901 15.302l-0.083 0.091c13.949 14.025 21.81 31.155 21.81 45.301 0 64.785-155.814 136.966-379.42 136.966-223.595 0-379.41-72.18-379.41-136.966 0-16.14 4.538-29.952 22.324-45.67 0.214-0.205 0.43-0.382 0.635-0.595 0.137-0.118 0.24-0.233 0.379-0.354l-0.085-0.08c3.417-3.72 5.623-8.59 5.623-14.038 0-11.543-9.356-20.9-20.899-20.9-5.77 0-10.993 2.341-14.773 6.12l-0.123-0.119c-23.408 22.798-36.595 48.278-36.595 75.636 0 102.883 181.821 180.483 422.926 180.483zM895.577 629.53c-0.169-0.165-0.282-0.343-0.453-0.508l-0.115 0.125c-3.717-3.408-8.577-5.609-14.018-5.609-11.54 0-20.898 9.356-20.898 20.9 0 6.11 2.72 11.482 6.901 15.302l-0.084 0.09c13.95 14.025 21.811 31.155 21.811 45.302 0 64.787-155.814 136.966-379.42 136.966-223.595 0-379.41-72.18-379.41-136.966 0-16.14 4.538-29.953 22.322-45.67 0.214-0.203 0.43-0.382 0.635-0.595 0.137-0.119 0.24-0.233 0.379-0.354l-0.085-0.081c3.417-3.72 5.623-8.589 5.623-14.038 0-11.543-9.356-20.899-20.898-20.899-5.77 0-10.993 2.34-14.773 6.12l-0.123-0.119c-23.41 22.797-36.595 48.279-36.595 75.636 0 102.884 181.821 180.482 422.927 180.482 241.114 0 422.935-77.598 422.935-180.482 0-27.167-13.126-52.453-36.235-75.127-0.152-0.158-0.272-0.324-0.426-0.475z" /></svg>