<?xml version="1.0" standalone="no"?><!DOCTYPE svg PUBLIC "-//W3C//DTD SVG 1.1//EN" "http://www.w3.org/Graphics/SVG/1.1/DTD/svg11.dtd"><svg class="icon" width="200px" height="200.00px" viewBox="0 0 1024 1024" version="1.1" xmlns="http://www.w3.org/2000/svg"><path fill="#333333" d="M705.714933 958.708971H318.284043c-46.626947 0-84.546581-37.927821-84.546581-84.554768V149.853983c0-46.626947 37.919634-84.562954 84.546581-84.562954h387.43089c46.626947 0 84.546581 37.936007 84.546582 84.562954v724.30022c0 46.626947-37.918611 84.554768-84.546582 84.554768zM318.284043 99.652628c-27.668153 0-50.183959 22.51683-50.183959 50.201355v724.30022c0 27.676339 22.51683 50.193169 50.183959 50.193169h387.43089c27.668153 0 50.183959-22.51683 50.18396-50.193169V149.853983c0-27.684526-22.51683-50.201355-50.18396-50.201355H318.284043z"  /><path fill="#333333" d="M663.685701 604.985788H360.314299c-32.650631 0-59.211567-26.559912-59.211567-59.211567V179.249477c0-32.650631 26.559912-59.211567 59.211567-59.211567h303.371402c32.650631 0 59.211567 26.559912 59.211567 59.211567v366.524744c-0.001023 32.651654-26.560936 59.211567-59.211567 59.211567zM360.314299 154.400532c-13.70821 0-24.848944 11.148921-24.848945 24.848945v366.524744c0 13.700023 11.140735 24.848944 24.848945 24.848944h303.371402c13.70821 0 24.848944-11.148921 24.848945-24.848944V179.249477c0-13.700023-11.140735-24.848944-24.848945-24.848945H360.314299zM512.008186 874.489848c-46.626947 0-84.562954-37.927821-84.562954-84.554768 0-46.626947 37.936007-84.562954 84.562954-84.562954s84.546581 37.936007 84.546582 84.562954-37.919634 84.554768-84.546582 84.554768z m0-134.756123c-27.684526 0-50.201355 22.51683-50.201355 50.201355 0 27.676339 22.51683 50.193169 50.201355 50.193169 27.668153 0 50.183959-22.51683 50.18396-50.193169 0-27.684526-22.515806-50.201355-50.18396-50.201355z"  /></svg>