<?xml version="1.0" standalone="no"?><!DOCTYPE svg PUBLIC "-//W3C//DTD SVG 1.1//EN" "http://www.w3.org/Graphics/SVG/1.1/DTD/svg11.dtd"><svg class="icon" width="200px" height="200.00px" viewBox="0 0 1024 1024" version="1.1" xmlns="http://www.w3.org/2000/svg"><path d="M891.667692 845.981538l-45.686154 45.686154c-6.301538 6.301538-16.541538 6.301538-22.843076 0L707.347692 775.876923c-6.301538-6.301538-6.301538-16.541538 0-22.843077l45.686154-45.686154c6.301538-6.301538 16.541538-6.301538 22.843077 0l115.790769 115.79077c6.301538 6.301538 6.301538 16.541538 0 22.843076z" fill="#808080" /><path d="M834.166154 927.901538c-11.815385 0-24.418462-4.726154-33.870769-14.178461l-115.79077-115.790769c-8.664615-8.664615-14.178462-21.267692-14.178461-33.87077 0-12.603077 4.726154-24.418462 14.178461-33.870769l45.686154-45.686154c8.664615-8.664615 21.267692-14.178462 33.870769-14.178461 12.603077 0 24.418462 4.726154 33.87077 14.178461l115.790769 115.79077c18.904615 18.904615 18.904615 48.836923 0 66.953846l-45.686154 45.686154c-9.452308 10.24-21.267692 14.966154-33.870769 14.966153zM740.430769 764.061538l94.523077 94.523077 24.418462-24.418461L764.061538 740.430769l-23.630769 23.630769z m151.236923 81.92z" fill="#7F7F7F" /><path d="M865.673846 901.907692c-9.452308 0-18.904615-3.938462-25.993846-11.027692l-196.923077-196.923077c-14.178462-14.178462-14.178462-37.021538 0-51.2 14.178462-14.178462 37.021538-14.178462 51.2 0l196.923077 196.923077c7.089231 7.089231 11.027692 15.753846 11.027692 25.993846 0 9.452308-3.938462 18.904615-11.027692 25.993846-6.301538 6.301538-15.753846 10.24-25.206154 10.24z" fill="#7F7F7F" /><path d="M442.683077 789.267692c-92.947692 0-179.593846-36.233846-244.972308-101.612307S96.098462 534.843077 96.098462 442.683077s36.233846-179.593846 101.612307-244.972308 152.812308-101.612308 244.972308-101.612307S622.276923 132.332308 687.655385 197.710769s101.612308 152.812308 101.612307 244.972308S753.033846 622.276923 687.655385 687.655385s-152.812308 101.612308-244.972308 101.612307z m0-630.153846c-75.618462 0-147.298462 29.144615-200.861539 82.707692-53.563077 53.563077-82.707692 124.455385-82.707692 200.861539s29.144615 147.298462 82.707692 200.861538c53.563077 53.563077 124.455385 82.707692 200.861539 82.707693s147.298462-29.144615 200.861538-82.707693c53.563077-53.563077 82.707692-124.455385 82.707693-200.861538s-29.144615-147.298462-82.707693-200.861539c-54.350769-53.563077-125.243077-82.707692-200.861538-82.707692z" fill="#7F7F7F" /><path d="M229.490701 498.266457a78.769231 78.769231 0 1 0 111.39457-111.398459 78.769231 78.769231 0 1 0-111.39457 111.398459Z" fill="#BFBFBF" /></svg>