<?xml version="1.0" standalone="no"?><!DOCTYPE svg PUBLIC "-//W3C//DTD SVG 1.1//EN" "http://www.w3.org/Graphics/SVG/1.1/DTD/svg11.dtd"><svg class="icon" width="200px" height="200.00px" viewBox="0 0 1024 1024" version="1.1" xmlns="http://www.w3.org/2000/svg"><path fill="#333333" d="M509.866667 89.6C275.2 89.6 85.333333 279.466667 85.333333 514.133333 85.333333 748.8 275.2 938.666667 509.866667 938.666667c98.133333 0 189.866667-32 264.533333-91.733334 8.533333-6.4 10.666667-19.2 4.266667-29.866666-6.4-8.533333-19.2-10.666667-29.866667-4.266667C680.533333 866.133333 597.333333 896 509.866667 896c-211.2 0-384-170.666667-384-381.866667 0-211.2 170.666667-381.866667 384-381.866666 211.2 0 384 170.666667 384 381.866666 0 72.533333-19.2 140.8-57.6 202.666667-6.4 10.666667-2.133333 23.466667 6.4 27.733333 10.666667 6.4 23.466667 2.133333 27.733333-6.4 42.666667-66.133333 64-142.933333 64-224 0-234.666667-189.866667-424.533333-424.533333-424.533333zM601.6 494.933333c34.133333-27.733333 57.6-68.266667 57.6-117.333333 0-81.066667-66.133333-149.333333-147.2-149.333333-81.066667 0-147.2 66.133333-147.2 149.333333 0 81.066667 66.133333 149.333333 147.2 149.333333 12.8 0 23.466667-2.133333 34.133333-4.266666 108.8 8.533333 187.733333 83.2 194.133334 172.8H516.266667l-217.6 2.133333s-2.133333 0-2.133334-2.133333c8.533333-61.866667 64-115.2 113.066667-145.066667 6.4-4.266667 6.4-14.933333 4.266667-19.2-6.4-8.533333-17.066667-6.4-23.466667-4.266667-64 21.333333-136.533333 110.933333-136.533333 189.866667v12.8H782.933333v-12.8c0-96-74.666667-194.133333-181.333333-221.866667z m-204.8-115.2c0-61.866667 51.2-113.066667 113.066667-113.066666s113.066667 51.2 113.066666 113.066666c0 53.333333-38.4 98.133333-87.466666 108.8h-8.533334c-2.133333 0-6.4 0-8.533333 2.133334H512c-64 2.133333-115.2-49.066667-115.2-110.933334z" /></svg>